<svg width="60" height="60" viewBox="0 0 60 60" fill="none" xmlns="http://www.w3.org/2000/svg">
<g id="Group">
<path id="Vector" d="M29.9999 57.5C34.9727 57.5 39.7418 55.5246 43.2581 52.0083C46.7744 48.4919 48.7499 43.7228 48.7499 38.75C48.7499 36.585 48.1749 34.5075 47.4999 32.575C43.3324 36.6925 40.1674 38.75 37.9999 38.75C47.9874 21.25 42.4999 13.75 27.4999 3.75C28.7499 16.25 20.5099 21.935 17.1549 25.0925C14.4182 27.6667 12.518 31.0037 11.7006 34.6708C10.8832 38.3379 11.1863 42.1661 12.5707 45.6588C13.9551 49.1516 16.3569 52.1479 19.4646 54.2593C22.5724 56.3706 26.2428 57.4997 29.9999 57.5ZM31.7749 13.0875C39.8774 19.9625 39.9174 25.305 33.6574 36.2725C31.7549 39.605 34.1624 43.75 37.9999 43.75C39.7199 43.75 41.4599 43.25 43.2974 42.2625C42.7527 44.32 41.7379 46.2229 40.3328 47.8214C38.9276 49.42 37.1706 50.6706 35.2 51.4747C33.2295 52.2788 31.0991 52.6144 28.9768 52.4552C26.8544 52.296 24.798 51.6463 22.9694 50.5573C21.1408 49.4682 19.59 47.9695 18.4391 46.1792C17.2882 44.3889 16.5686 42.3559 16.3369 40.2402C16.1053 38.1246 16.3679 35.984 17.1042 33.9871C17.8405 31.9902 19.0303 30.1914 20.5799 28.7325C20.8949 28.4375 22.4924 27.02 22.5624 26.9575C23.6224 26.0075 24.4949 25.165 25.3574 24.2425C28.4324 20.9475 30.6424 17.2925 31.7724 13.0875H31.7749Z" fill="url(#paint0_linear_6080_2595)"/>
</g>
<defs>
<linearGradient id="paint0_linear_6080_2595" x1="48.7499" y1="3.75" x2="8.71068" y2="5.71447" gradientUnits="userSpaceOnUse">
<stop stop-color="#FE6272"/>
<stop offset="1" stop-color="#FC9446"/>
</linearGradient>
</defs>
</svg>
