<svg width="14" height="19" viewBox="0 0 14 19" fill="none" xmlns="http://www.w3.org/2000/svg">
<g id="Group">
<path id="Vector" d="M6.99967 4.83352C8.76778 4.83352 10.4635 5.53589 11.7137 6.78614C12.964 8.03638 13.6663 9.73207 13.6663 11.5002C13.6663 13.2683 12.964 14.964 11.7137 16.2142C10.4635 17.4645 8.76778 18.1668 6.99967 18.1668C5.23156 18.1668 3.53587 17.4645 2.28563 16.2142C1.03539 14.964 0.333008 13.2683 0.333008 11.5002C0.333008 9.73207 1.03539 8.03638 2.28563 6.78614C3.53587 5.53589 5.23156 4.83352 6.99967 4.83352ZM6.99967 6.50018C5.67359 6.50018 4.40182 7.02697 3.46414 7.96465C2.52646 8.90233 1.99967 10.1741 1.99967 11.5002C1.99967 12.8263 2.52646 14.098 3.46414 15.0357C4.40182 15.9734 5.67359 16.5002 6.99967 16.5002C8.32576 16.5002 9.59753 15.9734 10.5352 15.0357C11.4729 14.098 11.9997 12.8263 11.9997 11.5002C11.9997 10.1741 11.4729 8.90233 10.5352 7.96465C9.59753 7.02697 8.32576 6.50018 6.99967 6.50018ZM6.99967 7.75018L8.10217 9.98352L10.5663 10.3418L8.78301 12.0793L9.20384 14.5343L6.99967 13.3752L4.79551 14.5335L5.21634 12.0793L3.43301 10.341L5.89717 9.98268L6.99967 7.75018ZM11.9997 0.666849V3.16685L10.8638 4.11518C9.92129 3.62067 8.89223 3.31254 7.83301 3.20768V0.666849H11.9997ZM6.16634 0.666016V3.20768C5.10746 3.31239 4.07869 3.62023 3.13634 4.11435L1.99967 3.16685V0.666849L6.16634 0.666016Z" fill="white"/>
</g>
</svg>
