<svg width="33" height="32" viewBox="0 0 33 32" fill="none" xmlns="http://www.w3.org/2000/svg">
<g id="Group">
<path id="Vector" d="M3.33301 12.6667V5.33333C3.33301 4.97971 3.47348 4.64057 3.72353 4.39052C3.97358 4.14048 4.31272 4 4.66634 4H28.6663C29.02 4 29.3591 4.14048 29.6092 4.39052C29.8592 4.64057 29.9997 4.97971 29.9997 5.33333V12.6667C29.1156 12.6667 28.2678 13.0179 27.6427 13.643C27.0175 14.2681 26.6663 15.1159 26.6663 16C26.6663 16.8841 27.0175 17.7319 27.6427 18.357C28.2678 18.9821 29.1156 19.3333 29.9997 19.3333V26.6667C29.9997 27.0203 29.8592 27.3594 29.6092 27.6095C29.3591 27.8595 29.02 28 28.6663 28H4.66634C4.31272 28 3.97358 27.8595 3.72353 27.6095C3.47348 27.3594 3.33301 27.0203 3.33301 26.6667V19.3333C4.21706 19.3333 5.06491 18.9821 5.69003 18.357C6.31515 17.7319 6.66634 16.8841 6.66634 16C6.66634 15.1159 6.31515 14.2681 5.69003 13.643C5.06491 13.0179 4.21706 12.6667 3.33301 12.6667ZM5.99967 10.624C7.00129 11.1204 7.84431 11.8867 8.43368 12.8366C9.02306 13.7865 9.33535 14.8821 9.33535 16C9.33535 17.1179 9.02306 18.2135 8.43368 19.1634C7.84431 20.1133 7.00129 20.8796 5.99967 21.376V25.3333H27.333V21.376C26.3314 20.8796 25.4884 20.1133 24.899 19.1634C24.3096 18.2135 23.9973 17.1179 23.9973 16C23.9973 14.8821 24.3096 13.7865 24.899 12.8366C25.4884 11.8867 26.3314 11.1204 27.333 10.624V6.66667H5.99967V10.624ZM12.6663 12H20.6663V14.6667H12.6663V12ZM12.6663 17.3333H20.6663V20H12.6663V17.3333Z" fill="url(#paint0_linear_5481_3501)"/>
</g>
<defs>
<linearGradient id="paint0_linear_5481_3501" x1="29.9997" y1="4" x2="1.63083" y2="6.21679" gradientUnits="userSpaceOnUse">
<stop stop-color="#FE6272"/>
<stop offset="1" stop-color="#FC9446"/>
</linearGradient>
</defs>
</svg>
