<svg width="64" height="64" viewBox="0 0 64 64" fill="none" xmlns="http://www.w3.org/2000/svg">
<rect width="64" height="64" rx="12" fill="url(#paint0_linear_6485_5215)" fill-opacity="0.5"/>
<path d="M31.9996 20C39.1889 20 45.1702 25.1733 46.4249 32C45.1716 38.8267 39.1889 44 31.9996 44C24.8102 44 18.8289 38.8267 17.5742 32C18.8276 25.1733 24.8102 20 31.9996 20ZM31.9996 41.3333C34.7188 41.3327 37.3574 40.4091 39.4834 38.7136C41.6093 37.018 43.0968 34.651 43.7022 32C43.0945 29.3511 41.6061 26.9867 39.4804 25.2934C37.3546 23.6001 34.7173 22.678 31.9996 22.678C29.2818 22.678 26.6445 23.6001 24.5187 25.2934C22.393 26.9867 20.9046 29.3511 20.2969 32C20.9023 34.651 22.3898 37.018 24.5157 38.7136C26.6417 40.4091 29.2803 41.3327 31.9996 41.3333ZM31.9996 38C30.4083 38 28.8821 37.3679 27.7569 36.2426C26.6317 35.1174 25.9996 33.5913 25.9996 32C25.9996 30.4087 26.6317 28.8826 27.7569 27.7574C28.8821 26.6321 30.4083 26 31.9996 26C33.5909 26 35.117 26.6321 36.2422 27.7574C37.3674 28.8826 37.9996 30.4087 37.9996 32C37.9996 33.5913 37.3674 35.1174 36.2422 36.2426C35.117 37.3679 33.5909 38 31.9996 38ZM31.9996 35.3333C32.8836 35.3333 33.7315 34.9821 34.3566 34.357C34.9817 33.7319 35.3329 32.8841 35.3329 32C35.3329 31.1159 34.9817 30.2681 34.3566 29.643C33.7315 29.0179 32.8836 28.6667 31.9996 28.6667C31.1155 28.6667 30.2677 29.0179 29.6425 29.643C29.0174 30.2681 28.6662 31.1159 28.6662 32C28.6662 32.8841 29.0174 33.7319 29.6425 34.357C30.2677 34.9821 31.1155 35.3333 31.9996 35.3333Z" fill="white"/>
<defs>
<linearGradient id="paint0_linear_6485_5215" x1="64" y1="0" x2="-4.16383" y2="4.79379" gradientUnits="userSpaceOnUse">
<stop stop-color="#FE6272"/>
<stop offset="1" stop-color="#FC9446"/>
</linearGradient>
</defs>
</svg>
