<svg viewBox="0 0 162 40" fill="none" xmlns="http://www.w3.org/2000/svg">
<g id="ARAAFAL">
<path d="M12.3769 11.4558V7.7327C12.3769 7.68497 12.3291 7.63723 12.2813 7.63723H10.0353C9.98754 7.63723 9.93975 7.68497 9.93975 7.7327V11.4558H12.3769ZM47.0705 40H17.3468C14.0495 40 12.3769 38.7589 12.3769 36.2291V19.0931H9.93975V30.5012H0V3.86635C0 1.28878 1.67255 0 4.96988 0H17.3468C20.6441 0 22.3167 1.28878 22.3167 3.86635V32.315C22.3167 32.3628 22.3644 32.4105 22.4122 32.4105H47.0705V40ZM47.0705 30.5012H37.1307V18.3771C37.1307 18.3294 37.0829 18.2816 37.0351 18.2816H34.6936V30.5012H24.7538V0H42.1006C45.3979 0 47.0227 1.28878 47.0227 3.86635V12.7446C47.0227 14.2243 46.2103 15.0358 44.5855 15.2267C46.2581 15.4654 47.0705 16.2768 47.0705 17.7566V30.5012ZM37.1307 12.1241V7.7327C37.1307 7.68497 37.0829 7.63723 37.0351 7.63723H34.6936V12.2196H37.0351C37.0829 12.2196 37.1307 12.1718 37.1307 12.1241Z" fill="white"/>
<path d="M109.783 30.5012H99.8437V3.86635C99.8437 1.33652 101.516 0 104.814 0H118.481V7.63723H109.879C109.831 7.63723 109.783 7.68497 109.783 7.7327V9.49881H118.385V17.136H109.783V30.5012Z" fill="white"/>
<path d="M133.232 11.4558V7.7327C133.232 7.68497 133.184 7.63723 133.136 7.63723H130.89C130.843 7.63723 130.795 7.68497 130.795 7.7327V11.4558H133.232ZM162 40H138.202C134.905 40 133.232 38.7589 133.232 36.2291V19.0931H130.795V30.5012H120.855V3.86635C120.855 1.28878 122.528 0 125.825 0H138.202C141.499 0 143.172 1.28878 143.172 3.86635V32.315C143.172 32.3628 143.22 32.4105 143.267 32.4105H162V40ZM162 30.5012H145.609V0H155.549V22.9117H162V30.5012Z" fill="white"/>
<path fill-rule="evenodd" clip-rule="evenodd" d="M67.292 40C63.9946 40 62.3221 38.7589 62.3221 36.2291V19.0931H59.8849V30.5012H49.9452V3.86635C49.9452 1.28878 51.6177 0 54.9151 0H67.292C70.5893 0 72.2618 1.28878 72.2618 3.86635V32.315C72.2618 32.3628 72.3096 32.4105 72.3574 32.4105H87.0281V30.5012V19.0931H84.591V30.5012H74.6512V3.86635C74.6512 1.28878 76.3238 0 79.6211 0H91.998C95.2953 0 96.9679 1.28878 96.9679 3.86635V30.5012V32.4105V36.2053C96.9679 39.2411 93.9483 40 92.4385 40H67.292ZM62.3221 7.7327V11.4558H59.8849V7.7327C59.8849 7.68497 59.9327 7.63723 59.9805 7.63723H62.2265C62.2743 7.63723 62.3221 7.68497 62.3221 7.7327ZM87.0281 7.7327V11.4558H84.591V7.7327C84.591 7.68497 84.6387 7.63723 84.6865 7.63723H86.9325C86.9803 7.63723 87.0281 7.68497 87.0281 7.7327Z" fill="white"/>
</g>
</svg>
