<svg width="28" height="28" viewBox="0 0 28 28" fill="none" xmlns="http://www.w3.org/2000/svg">
<path d="M14.0003 8.16653C16.4757 8.16653 18.8497 9.14986 20.6 10.9002C22.3503 12.6505 23.3337 15.0245 23.3337 17.4999C23.3337 19.9752 22.3503 22.3492 20.6 24.0995C18.8497 25.8499 16.4757 26.8332 14.0003 26.8332C11.525 26.8332 9.151 25.8499 7.40066 24.0995C5.65032 22.3492 4.66699 19.9752 4.66699 17.4999C4.66699 15.0245 5.65032 12.6505 7.40066 10.9002C9.151 9.14986 11.525 8.16653 14.0003 8.16653ZM14.0003 10.4999C12.1438 10.4999 10.3633 11.2374 9.05058 12.5501C7.73782 13.8629 7.00033 15.6433 7.00033 17.4999C7.00033 19.3564 7.73782 21.1369 9.05058 22.4496C10.3633 23.7624 12.1438 24.4999 14.0003 24.4999C15.8568 24.4999 17.6373 23.7624 18.9501 22.4496C20.2628 21.1369 21.0003 19.3564 21.0003 17.4999C21.0003 15.6433 20.2628 13.8629 18.9501 12.5501C17.6373 11.2374 15.8568 10.4999 14.0003 10.4999ZM14.0003 12.2499L15.5438 15.3765L18.9937 15.8782L16.497 18.3107L17.0862 21.7477L14.0003 20.1249L10.9145 21.7465L11.5037 18.3107L9.00699 15.877L12.4568 15.3754L14.0003 12.2499ZM21.0003 2.3332V5.8332L19.4102 7.16086C18.0906 6.46854 16.6499 6.03717 15.167 5.89036V2.3332H21.0003ZM12.8337 2.33203V5.89036C11.3512 6.03695 9.91095 6.46793 8.59166 7.1597L7.00033 5.8332V2.3332L12.8337 2.33203Z" fill="white"/>
</svg>
