<svg width="48" height="48" viewBox="0 0 48 48" fill="none" xmlns="http://www.w3.org/2000/svg">
<rect x="1" y="1" width="46" height="46" rx="7" stroke="#474747" stroke-width="2"/>
<path d="M27.728 21.6861L26.314 20.2721L17 29.5861V31.0001H18.414L27.728 21.6861ZM29.142 20.2721L30.556 18.8581L29.142 17.4441L27.728 18.8581L29.142 20.2721ZM19.242 33.0001H15V28.7571L28.435 15.3221C28.6225 15.1346 28.8768 15.0293 29.142 15.0293C29.4072 15.0293 29.6615 15.1346 29.849 15.3221L32.678 18.1511C32.8655 18.3386 32.9708 18.5929 32.9708 18.8581C32.9708 19.1232 32.8655 19.3776 32.678 19.5651L19.243 33.0001H19.242Z" fill="#DDDDDD"/>
</svg>
