<svg width="28" height="28" viewBox="0 0 28 28" fill="none" xmlns="http://www.w3.org/2000/svg">
<path d="M14.0002 25.6668C7.55666 25.6668 2.3335 20.4437 2.3335 14.0002C2.3335 7.55666 7.55666 2.3335 14.0002 2.3335C20.4437 2.3335 25.6668 7.55666 25.6668 14.0002C25.6668 20.4437 20.4437 25.6668 14.0002 25.6668ZM14.0002 23.3335C16.4755 23.3335 18.8495 22.3502 20.5998 20.5998C22.3502 18.8495 23.3335 16.4755 23.3335 14.0002C23.3335 11.5248 22.3502 9.15084 20.5998 7.4005C18.8495 5.65016 16.4755 4.66683 14.0002 4.66683C11.5248 4.66683 9.15084 5.65016 7.4005 7.4005C5.65016 9.15084 4.66683 11.5248 4.66683 14.0002C4.66683 16.4755 5.65016 18.8495 7.4005 20.5998C9.15084 22.3502 11.5248 23.3335 14.0002 23.3335ZM12.8335 8.16683H15.1668V10.5002H12.8335V8.16683ZM12.8335 12.8335H15.1668V19.8335H12.8335V12.8335Z" fill="white"/>
</svg>
