<svg width="1440" height="172" viewBox="0 0 1440 172" fill="none" xmlns="http://www.w3.org/2000/svg">
<path d="M810 36.1472L774.853 1L725.147 1L690 36.1472M810 36.1472V85.8528M810 36.1472L845.147 1L894.853 1L930 36.1472M810 85.8528L774.853 121H725.147L690 85.8528M810 85.8528L845.147 121H894.853L930 85.8528M690 85.8528V36.1472M690 85.8528L654.853 121H605.147L570 85.8528M690 36.1472L654.853 1L605.147 1L570 36.1472M90 36.1472L54.8528 1L5.14718 1L-30 36.1472L-30 85.8528L5.14718 121H54.8528L90 85.8528M90 36.1472V85.8528M90 36.1472L125.147 1L174.853 1L210 36.1472M90 85.8528L125.147 121H174.853L210 85.8528M810 86.1472L774.853 51H725.147L690 86.1472M810 86.1472V135.853M810 86.1472L845.147 51H894.853L930 86.1472M810 135.853L774.853 171H725.147L690 135.853M810 135.853L845.147 171H894.853L930 135.853M690 135.853V86.1472M690 135.853L654.853 171H605.147L570 135.853M690 86.1472L654.853 51H605.147L570 86.1472M90 86.1472L54.8528 51H5.14718L-30 86.1472L-30 135.853L5.14718 171H54.8528L90 135.853M90 86.1472V135.853M90 86.1472L125.147 51H174.853L210 86.1472M90 135.853L125.147 171H174.853L210 135.853M1170 36.1472L1134.85 1L1085.15 1L1050 36.1472M1170 36.1472V85.8528M1170 36.1472L1205.15 1L1254.85 1L1290 36.1472M1170 85.8528L1134.85 121H1085.15L1050 85.8528M1170 85.8528L1205.15 121H1254.85L1290 85.8528M1050 85.8528V36.1472M1050 85.8528L1014.85 121H965.147L930 85.8528M1050 36.1472L1014.85 1L965.147 1L930 36.1472M450 36.1472L414.853 1L365.147 1L330 36.1472M450 36.1472V85.8528M450 36.1472L485.147 1L534.853 1L570 36.1472M450 85.8528L414.853 121H365.147L330 85.8528M450 85.8528L485.147 121H534.853L570 85.8528M330 85.8528V36.1472M330 85.8528L294.853 121H245.147L210 85.8528M330 36.1472L294.853 1L245.147 1L210 36.1472M1170 86.1472L1134.85 51H1085.15L1050 86.1472M1170 86.1472V135.853M1170 86.1472L1205.15 51H1254.85L1290 86.1472M1170 135.853L1134.85 171H1085.15L1050 135.853M1170 135.853L1205.15 171H1254.85L1290 135.853M1050 135.853V86.1472M1050 135.853L1014.85 171H965.147L930 135.853M1050 86.1472L1014.85 51H965.147L930 86.1472M450 86.1472L414.853 51H365.147L330 86.1472M450 86.1472V135.853M450 86.1472L485.147 51H534.853L570 86.1472M450 135.853L414.853 171H365.147L330 135.853M450 135.853L485.147 171H534.853L570 135.853M330 135.853V86.1472M330 135.853L294.853 171H245.147L210 135.853M330 86.1472L294.853 51H245.147L210 86.1472M990 36.1472L954.853 1L905.147 1L870 36.1472M990 36.1472V85.8528M990 36.1472L1025.15 1L1074.85 1L1110 36.1472M990 85.8528L954.853 121H905.147L870 85.8528M990 85.8528L1025.15 121H1074.85L1110 85.8528M870 85.8528V36.1472M870 85.8528L834.853 121H785.147L750 85.8528M870 36.1472L834.853 1L785.147 1L750 36.1472M270 36.1472L234.853 1L185.147 1L150 36.1472M270 36.1472V85.8528M270 36.1472L305.147 1L354.853 1L390 36.1472M270 85.8528L234.853 121H185.147L150 85.8528M270 85.8528L305.147 121H354.853L390 85.8528M150 85.8528V36.1472M150 85.8528L114.853 121H65.1472L30 85.8528V36.1472L65.1472 1L114.853 1L150 36.1472M990 86.1472L954.853 51H905.147L870 86.1472M990 86.1472V135.853M990 86.1472L1025.15 51H1074.85L1110 86.1472M990 135.853L954.853 171H905.147L870 135.853M990 135.853L1025.15 171H1074.85L1110 135.853M870 135.853V86.1472M870 135.853L834.853 171H785.147L750 135.853M870 86.1472L834.853 51H785.147L750 86.1472M270 86.1472L234.853 51H185.147L150 86.1472M270 86.1472V135.853M270 86.1472L305.147 51H354.853L390 86.1472M270 135.853L234.853 171H185.147L150 135.853M270 135.853L305.147 171H354.853L390 135.853M150 135.853V86.1472M150 135.853L114.853 171H65.1472L30 135.853V86.1472L65.1472 51H114.853L150 86.1472M1350 36.1472L1314.85 1L1265.15 1L1230 36.1472M1350 36.1472V85.8528M1350 36.1472L1385.15 1L1434.85 1L1470 36.1472V85.8528L1434.85 121H1385.15L1350 85.8528M1350 85.8528L1314.85 121H1265.15L1230 85.8528M1230 85.8528V36.1472M1230 85.8528L1194.85 121H1145.15L1110 85.8528M1230 36.1472L1194.85 1L1145.15 1L1110 36.1472M630 36.1472L594.853 1L545.147 1L510 36.1472M630 36.1472V85.8528M630 36.1472L665.147 1L714.853 1L750 36.1472M630 85.8528L594.853 121H545.147L510 85.8528M630 85.8528L665.147 121H714.853L750 85.8528M510 85.8528V36.1472M510 85.8528L474.853 121H425.147L390 85.8528M510 36.1472L474.853 1L425.147 1L390 36.1472M1350 86.1472L1314.85 51H1265.15L1230 86.1472M1350 86.1472V135.853M1350 86.1472L1385.15 51H1434.85L1470 86.1472V135.853L1434.85 171H1385.15L1350 135.853M1350 135.853L1314.85 171H1265.15L1230 135.853M1230 135.853V86.1472M1230 135.853L1194.85 171H1145.15L1110 135.853M1230 86.1472L1194.85 51H1145.15L1110 86.1472M630 86.1472L594.853 51H545.147L510 86.1472M630 86.1472V135.853M630 86.1472L665.147 51H714.853L750 86.1472M630 135.853L594.853 171H545.147L510 135.853M630 135.853L665.147 171H714.853L750 135.853M510 135.853V86.1472M510 135.853L474.853 171H425.147L390 135.853M510 86.1472L474.853 51H425.147L390 86.1472M930 36.1472V85.8528M210 36.1472V85.8528M930 86.1472V135.853M210 86.1472V135.853M1290 36.1472V85.8528M1290 36.1472L1325.15 1L1374.85 1L1410 36.1472V85.8528L1374.85 121H1325.15L1290 85.8528M570 36.1472V85.8528M1290 86.1472V135.853M1290 86.1472L1325.15 51H1374.85L1410 86.1472V135.853L1374.85 171H1325.15L1290 135.853M570 86.1472V135.853M1110 36.1472V85.8528M390 36.1472V85.8528M1110 86.1472V135.853M390 86.1472V135.853M750 36.1472V85.8528M750 86.1472V135.853" stroke="#FD7C5B" stroke-opacity="0.2"/>
</svg>
