<svg width="96" height="96" viewBox="0 0 96 96" fill="none" xmlns="http://www.w3.org/2000/svg">
<g clip-path="url(#clip0_3939_491)">
<path d="M23.8498 7.33125C22.556 7.96875 21.8998 8.6625 21.2623 10.0312C20.8498 10.9125 20.8123 11.1937 20.8123 14.625V18.2812L12.2435 20.4187C7.51852 21.6 3.26227 22.7437 2.79352 22.9875C1.79977 23.475 0.693524 24.6375 0.281024 25.6125C-0.450226 27.375 -0.543976 26.925 7.14352 57.45C12.0373 76.9125 14.4185 86.025 14.7185 86.5312C15.6935 88.2 17.231 89.1187 19.2185 89.2125C20.3623 89.2688 21.581 89.025 29.0623 87.225C33.7498 86.1 39.956 84.6 42.8435 83.9062L48.0935 82.65L61.7435 85.95C71.9623 88.425 75.6748 89.25 76.556 89.25C78.4498 89.25 80.3435 88.1625 81.2623 86.55C81.7123 85.7812 86.4373 67.5938 86.4373 66.6375C86.4373 64.95 84.4873 64.0875 83.2498 65.2125C82.6873 65.7 82.556 66.1687 80.3623 74.9062C79.106 79.95 77.9623 84.2812 77.8498 84.5062C77.5685 85.0125 77.0623 85.3125 76.4623 85.3125C76.2185 85.3125 73.4623 84.7125 70.331 83.9625L64.631 82.5937L67.9873 82.5C70.9873 82.425 71.4185 82.3687 72.1123 81.9937C73.3685 81.3187 74.006 80.6812 74.606 79.4625L75.1873 78.3187V64.2V50.1L76.5748 49.8C77.3998 49.6125 78.0935 49.3312 78.281 49.125C78.7873 48.5625 83.0623 36.1312 83.0623 35.25C83.0623 34.425 83.0998 34.4625 78.0185 28.8L75.1873 25.6125V23.9812V22.35L83.2685 24.375C88.3873 25.65 91.4623 26.5125 91.706 26.7187C91.9498 26.9437 92.0623 27.3 92.0623 27.8062C92.0623 28.2187 90.8248 33.4125 89.3248 39.3375C87.3748 47.0812 86.6248 50.3062 86.6998 50.7188C86.831 51.4125 87.2623 51.8438 88.0685 52.125C88.781 52.3875 89.831 51.9937 90.2435 51.3375C90.3935 51.1125 91.7623 45.9937 93.2623 40.0125C96.131 28.5562 96.2998 27.6 95.7748 25.8375C95.4935 24.8625 94.2748 23.5125 93.206 22.9875C92.7373 22.7437 88.481 21.6 83.7748 20.4187L75.1873 18.2812V14.6062V10.9312L74.606 9.7875C73.9685 8.49374 73.2748 7.83749 71.906 7.2L70.9685 6.75H47.981H24.9935L23.8498 7.33125ZM70.5373 10.9125C70.8373 11.1187 71.1185 11.55 71.231 11.9437C71.456 12.7125 71.531 75.975 71.3248 77.0437C71.2498 77.3625 70.9873 77.8312 70.7248 78.0938L70.256 78.5625H47.9998H25.7435L25.256 78.075C24.956 77.775 24.731 77.2875 24.656 76.8187C24.5998 76.3875 24.5623 61.5937 24.5998 43.9688C24.656 13.7437 24.6748 11.8687 24.9935 11.3812C25.1623 11.1187 25.5935 10.8 25.931 10.7062C26.2873 10.5938 35.081 10.5375 48.281 10.5562C68.6248 10.5938 70.0873 10.6125 70.5373 10.9125ZM20.8123 24.0562V25.6125L17.981 28.8C12.8998 34.4625 12.9373 34.425 12.9373 35.2312C12.9373 36.1312 17.2123 48.5812 17.7185 49.125C17.906 49.3312 18.5998 49.6125 19.4248 49.8L20.8123 50.1V64.2V78.3187L21.3935 79.4625C21.9935 80.6812 22.631 81.3187 23.8873 81.9937C24.581 82.3687 25.0123 82.425 28.031 82.5L31.406 82.5937L25.6873 83.9625C22.5373 84.7125 19.7623 85.3125 19.4998 85.3125C18.8623 85.3125 18.281 84.8812 18.0373 84.2437C17.5685 83.0625 3.93727 28.4437 3.93727 27.7875C3.93727 27.3 4.06852 26.9437 4.29352 26.7375C4.63102 26.4187 19.406 22.5562 20.3998 22.5187C20.7935 22.5 20.8123 22.5562 20.8123 24.0562ZM20.8123 38.85C20.8123 42.7875 20.7373 45.9375 20.6623 45.825C20.5685 45.7312 19.7248 43.4437 18.7873 40.725L17.081 35.7937L18.8998 33.75C19.8935 32.625 20.7373 31.7062 20.7748 31.6875C20.7935 31.6875 20.8123 34.9125 20.8123 38.85ZM77.2123 33.8812L78.9373 35.775L77.2123 40.725C76.2748 43.425 75.431 45.7312 75.3373 45.825C75.2623 45.9375 75.1873 42.7687 75.1873 38.8125C75.1873 34.8562 75.2623 31.6875 75.3373 31.7812C75.431 31.8937 76.2748 32.8312 77.2123 33.8812Z" fill="#C4C3C2"/>
<path d="M40.4247 20.0625C36.731 22.2375 33.581 24.15 33.4497 24.3188C33.0747 24.8063 33.0747 41.1938 33.4497 41.6813C33.581 41.85 36.7497 43.7813 40.481 45.9375C46.2185 49.275 47.3622 49.875 47.9997 49.875C48.6372 49.875 49.7622 49.275 55.3497 46.05C58.9872 43.9313 62.156 42.0375 62.381 41.8125L62.8122 41.4V33V24.6L62.381 24.1875C62.156 23.9625 58.9872 22.0688 55.3497 19.95C49.5185 16.575 48.656 16.125 47.9435 16.1438C47.2685 16.1438 46.2372 16.6875 40.4247 20.0625ZM53.6435 23.5688L59.0622 26.7188V33V39.2813L53.6435 42.4313C50.6622 44.1563 48.131 45.5625 48.0185 45.5625C47.8872 45.5625 45.356 44.1563 42.356 42.4313L36.9372 39.2813V33V26.7188L42.3372 23.5875C45.2997 21.8625 47.831 20.4563 47.981 20.4375C48.1122 20.4375 50.6622 21.8438 53.6435 23.5688Z" fill="#C4C3C2"/>
<path d="M28.8937 54.8624L28.3125 55.3499V63.7499V72.1312L28.8 72.6374C29.5125 73.3312 30.8625 73.3312 31.575 72.6374L32.0625 72.1312V68.3999V64.6499L33.9187 68.3999C34.95 70.4624 35.9625 72.3187 36.1875 72.5249C37.0687 73.3312 38.625 73.1062 39.3187 72.0749C39.6187 71.5874 39.6562 70.9499 39.7125 64.4062C39.7875 56.2312 39.7312 55.5374 39.0562 54.8624C38.3625 54.1687 37.0125 54.1687 36.3 54.8624L35.8125 55.3687L35.7937 59.2312L35.775 63.0937L33.8437 59.1562C32.7375 56.9062 31.6875 55.0499 31.4062 54.8062C30.7125 54.2062 29.6437 54.2249 28.8937 54.8624Z" fill="#C4C3C2"/>
<path d="M43.8 54.8624L43.3125 55.3687V63.7499V72.1312L43.8 72.6374C44.5125 73.3312 45.8625 73.3312 46.575 72.6374L47.0625 72.1312V68.9062V65.6624L49.1437 65.5874L51.225 65.5312L51.7875 64.8937C52.2937 64.3312 52.35 64.1624 52.2562 63.3937C52.1812 62.7749 52.0312 62.4187 51.6562 62.1187C51.2062 61.7249 50.9812 61.6874 49.1062 61.6874H47.0625V59.9062V58.1249H49.3875C51.6375 58.1249 51.7125 58.1062 52.2 57.6374C52.8937 56.9249 52.8937 55.5749 52.2 54.8624L51.6937 54.3749H48H44.3062L43.8 54.8624Z" fill="#C4C3C2"/>
<path d="M56.925 54.8627C56.5312 55.2564 56.4375 55.5377 56.4375 56.2502C56.4375 56.9627 56.5312 57.2439 56.925 57.6377C57.375 58.0689 57.5812 58.1252 58.7062 58.1252H60V64.5752C60 68.1189 60.0562 71.2689 60.1125 71.6064C60.4125 73.0877 62.3062 73.6877 63.4125 72.6189L63.9375 72.1127V65.1189V58.1252H65.325C66.5625 58.1252 66.75 58.0689 67.2 57.6377C67.8937 56.9252 67.8937 55.5752 67.2 54.8627L66.6937 54.3752H62.0625H57.4312L56.925 54.8627Z" fill="#C4C3C2"/>
<path d="M85.8749 56.5687C84.3936 57.1499 84.1499 59.3999 85.5186 60.0937C87.5811 61.1624 89.5124 58.8749 87.9936 57.1874C87.4686 56.6062 86.4749 56.3249 85.8749 56.5687Z" fill="#C4C3C2"/>
</g>
<defs>
<clipPath id="clip0_3939_491">
<rect width="96" height="96" fill="white"/>
</clipPath>
</defs>
</svg>
