<svg width="72" height="72" viewBox="0 0 72 72" fill="none" xmlns="http://www.w3.org/2000/svg">
<path d="M36 66C19.431 66 6 52.569 6 36C6 19.431 19.431 6 36 6C52.569 6 66 19.431 66 36C66 52.569 52.569 66 36 66ZM36 60C42.3652 60 48.4697 57.4714 52.9706 52.9706C57.4714 48.4697 60 42.3652 60 36C60 29.6348 57.4714 23.5303 52.9706 19.0294C48.4697 14.5286 42.3652 12 36 12C29.6348 12 23.5303 14.5286 19.0294 19.0294C14.5286 23.5303 12 29.6348 12 36C12 42.3652 14.5286 48.4697 19.0294 52.9706C23.5303 57.4714 29.6348 60 36 60V60ZM21 39H27C27 41.3869 27.9482 43.6761 29.636 45.364C31.3239 47.0518 33.6131 48 36 48C38.3869 48 40.6761 47.0518 42.364 45.364C44.0518 43.6761 45 41.3869 45 39H51C51 42.9782 49.4196 46.7936 46.6066 49.6066C43.7936 52.4196 39.9782 54 36 54C32.0218 54 28.2064 52.4196 25.3934 49.6066C22.5804 46.7936 21 42.9782 21 39V39ZM24 33C22.8065 33 21.6619 32.5259 20.818 31.682C19.9741 30.8381 19.5 29.6935 19.5 28.5C19.5 27.3065 19.9741 26.1619 20.818 25.318C21.6619 24.4741 22.8065 24 24 24C25.1935 24 26.3381 24.4741 27.182 25.318C28.0259 26.1619 28.5 27.3065 28.5 28.5C28.5 29.6935 28.0259 30.8381 27.182 31.682C26.3381 32.5259 25.1935 33 24 33ZM48 33C46.8065 33 45.6619 32.5259 44.818 31.682C43.9741 30.8381 43.5 29.6935 43.5 28.5C43.5 27.3065 43.9741 26.1619 44.818 25.318C45.6619 24.4741 46.8065 24 48 24C49.1935 24 50.3381 24.4741 51.182 25.318C52.0259 26.1619 52.5 27.3065 52.5 28.5C52.5 29.6935 52.0259 30.8381 51.182 31.682C50.3381 32.5259 49.1935 33 48 33Z" fill="#C4C3C2"/>
</svg>
