<svg width="1216" height="432" viewBox="0 0 1216 432" fill="none" xmlns="http://www.w3.org/2000/svg">
<path d="M962.822 117.883L913.117 117.883L877.97 153.03L877.97 202.736M962.822 117.883L997.97 153.03M962.822 117.883L962.822 68.1775L997.97 33.0303L1047.68 33.0303M997.97 153.03L997.97 202.736L962.822 237.883L913.117 237.883M997.97 153.03L1047.68 153.03L1082.82 117.883L1082.82 68.1775M913.117 237.883L877.97 202.736M913.117 237.883L913.117 287.589L877.97 322.736L828.264 322.736M877.97 202.736L828.264 202.736L793.117 237.883L793.117 287.589M453.706 627L404 627L368.853 662.147L368.853 711.853L404 747L453.706 747L488.853 711.853V662.147M453.706 627L488.853 662.147M453.706 627L453.706 577.294L488.853 542.147L538.558 542.147M488.853 662.147H538.558L573.706 627V577.294M998.178 153.238L948.472 153.238L913.325 188.386L913.325 238.091M998.178 153.238L1033.33 188.386M998.178 153.238L998.178 103.533L1033.33 68.3857L1083.03 68.3857M1033.33 188.386L1033.33 238.091L998.178 273.238L948.472 273.238M1033.33 188.386L1083.03 188.386L1118.18 153.238L1118.18 103.533M948.472 273.238L913.325 238.091M948.472 273.238L948.472 322.944L913.325 358.091L863.619 358.091M913.325 238.091L863.619 238.091L828.472 273.238L828.472 322.944M489.061 662.355H439.355L404.208 697.503L404.208 747.208L439.355 782.355L489.061 782.355L524.208 747.208V697.503M489.061 662.355L524.208 697.503M489.061 662.355V612.65L524.208 577.503H573.914M524.208 697.503H573.914L609.061 662.355V612.65M1217.38 -136.675L1167.68 -136.675L1132.53 -101.528L1132.53 -51.8225M1217.38 -136.675L1252.53 -101.528M1217.38 -136.675L1217.38 -186.381L1252.53 -221.528L1302.23 -221.528M1252.53 -101.528L1252.53 -51.8225L1217.38 -16.6753L1167.68 -16.6753M1252.53 -101.528L1302.23 -101.528L1337.38 -136.675L1337.38 -186.381M1167.68 -16.6753L1132.53 -51.8225M1167.68 -16.6753L1167.68 33.0303L1132.53 68.1775L1082.82 68.1775M1132.53 -51.8225L1082.82 -51.8225L1047.68 -16.6753L1047.68 33.0303M708.264 372.442L658.558 372.442L623.411 407.589L623.411 457.294M708.264 372.442L743.411 407.589M708.264 372.442L708.264 322.736L743.411 287.589L793.117 287.589M743.411 407.589V457.294L708.264 492.442H658.558M743.411 407.589L793.117 407.589L828.264 372.442L828.264 322.736M658.558 492.442L623.411 457.294M658.558 492.442V542.147L623.411 577.294H573.706M623.411 457.294L573.706 457.294L538.558 492.442L538.558 542.147M1252.74 -101.32L1203.03 -101.32L1167.88 -66.1728L1167.88 -16.4672M1252.74 -101.32L1287.88 -66.1728M1252.74 -101.32L1252.74 -151.026L1287.88 -186.173L1337.59 -186.173M1287.88 -66.1728L1287.88 -16.4671L1252.74 18.68L1203.03 18.68M1287.88 -66.1728L1337.59 -66.1728L1372.74 -101.32L1372.74 -151.026M1203.03 18.68L1167.88 -16.4672M1203.03 18.68L1203.03 68.3857L1167.88 103.533L1118.18 103.533M1167.88 -16.4672L1118.18 -16.4671L1083.03 18.68L1083.03 68.3857M743.619 407.797H693.914L658.767 442.944V492.65M743.619 407.797L778.767 442.944M743.619 407.797L743.619 358.091L778.767 322.944L828.472 322.944M778.767 442.944V492.65L743.619 527.797H693.914M778.767 442.944L828.472 442.944L863.619 407.797L863.619 358.091M693.914 527.797L658.767 492.65M693.914 527.797V577.503L658.767 612.65H609.061M658.767 492.65H609.061L573.914 527.797V577.503M1090.1 -9.39609L1040.4 -9.39607L1005.25 25.7511L1005.25 75.4567M1090.1 -9.39609L1125.25 25.7511M1090.1 -9.39609L1090.1 -59.1017L1125.25 -94.2489L1174.95 -94.2489M1125.25 25.7511L1125.25 75.4567L1090.1 110.604L1040.4 110.604M1125.25 25.7511L1174.95 25.7511L1210.1 -9.39607L1210.1 -59.1017M1040.4 110.604L1005.25 75.4567M1040.4 110.604L1040.4 160.31L1005.25 195.457L955.543 195.457M1005.25 75.4567L955.543 75.4567L920.396 110.604L920.396 160.31M580.985 499.721L531.279 499.721L496.132 534.868L496.132 584.574M580.985 499.721L616.132 534.868M580.985 499.721L580.985 450.015L616.132 414.868L665.838 414.868M616.132 534.868V584.574L580.985 619.721H531.279M616.132 534.868H665.838L700.985 499.721V450.015M531.279 619.721L496.132 584.574M531.279 619.721V669.426L496.132 704.574H446.426L411.279 669.426L411.279 619.721L446.426 584.574L496.132 584.574M1125.46 25.9592L1075.75 25.9593L1040.6 61.1065L1040.6 110.812M1125.46 25.9592L1160.6 61.1064M1125.46 25.9592L1125.46 -23.7464L1160.6 -58.8935L1210.31 -58.8936M1160.6 61.1064L1160.6 110.812L1125.46 145.959L1075.75 145.959M1160.6 61.1064L1210.31 61.1064L1245.46 25.9593L1245.46 -23.7464M1075.75 145.959L1040.6 110.812M1075.75 145.959L1075.75 195.665L1040.6 230.812L990.899 230.812M1040.6 110.812L990.899 110.812L955.751 145.959L955.751 195.665M616.34 535.076H566.635L531.487 570.223V619.929M616.34 535.076L651.487 570.223M616.34 535.076V485.37L651.487 450.223H701.193M651.487 570.223V619.929L616.34 655.076H566.635M651.487 570.223H701.193L736.34 535.076V485.37M566.635 655.076L531.487 619.929M566.635 655.076V704.782L531.487 739.929H481.782L446.635 704.782V655.076L481.782 619.929H531.487M1344.66 -263.955L1294.95 -263.955L1259.81 -228.807L1259.81 -179.102M1344.66 -263.955L1379.81 -228.807M1344.66 -263.955L1344.66 -313.66L1379.81 -348.807L1429.51 -348.807L1464.66 -313.66L1464.66 -263.955L1429.51 -228.807L1379.81 -228.807M1379.81 -228.807L1379.81 -179.102L1344.66 -143.955L1294.95 -143.955M1294.95 -143.955L1259.81 -179.102M1294.95 -143.955L1294.95 -94.2489L1259.81 -59.1017L1210.1 -59.1017M1259.81 -179.102L1210.1 -179.102L1174.95 -143.955L1174.95 -94.2489M835.543 245.162L785.838 245.162L750.69 280.31L750.69 330.015M835.543 245.162L870.69 280.31M835.543 245.162L835.543 195.457L870.69 160.31L920.396 160.31M870.69 280.31L870.69 330.015L835.543 365.162L785.838 365.162M870.69 280.31L920.396 280.31L955.543 245.162L955.543 195.457M785.838 365.162L750.69 330.015M785.838 365.162V414.868L750.69 450.015H700.985M750.69 330.015L700.985 330.015L665.838 365.162L665.838 414.868M1380.02 -228.599L1330.31 -228.599L1295.16 -193.452L1295.16 -143.746M1380.02 -228.599L1415.16 -193.452M1380.02 -228.599L1380.02 -278.305L1415.16 -313.452L1464.87 -313.452L1500.02 -278.305L1500.02 -228.599L1464.87 -193.452L1415.16 -193.452M1415.16 -193.452L1415.16 -143.746L1380.02 -108.599L1330.31 -108.599M1330.31 -108.599L1295.16 -143.746M1330.31 -108.599L1330.31 -58.8935L1295.16 -23.7464L1245.46 -23.7464M1295.16 -143.746L1245.46 -143.746L1210.31 -108.599L1210.31 -58.8936M870.899 280.518L821.193 280.518L786.046 315.665L786.046 365.37M870.899 280.518L906.046 315.665M870.899 280.518L870.899 230.812L906.046 195.665L955.751 195.665M906.046 315.665L906.046 365.371L870.899 400.518L821.193 400.518M906.046 315.665L955.751 315.665L990.899 280.518L990.899 230.812M821.193 400.518L786.046 365.37M821.193 400.518V450.223L786.046 485.37H736.34M786.046 365.37H736.34L701.193 400.518V450.223M1047.68 33.0303L1082.82 68.1775M538.558 542.147L573.706 577.294M1083.03 68.3857L1118.18 103.533M573.914 577.503L609.061 612.65M1302.23 -221.528L1337.38 -186.381M1302.23 -221.528L1302.23 -271.234L1337.38 -306.381L1387.09 -306.381L1422.23 -271.234L1422.23 -221.528L1387.09 -186.381L1337.38 -186.381M793.117 287.589L828.264 322.736M1337.59 -186.173L1372.74 -151.026M1337.59 -186.173L1337.59 -235.878L1372.74 -271.026L1422.44 -271.026L1457.59 -235.878L1457.59 -186.173L1422.44 -151.026L1372.74 -151.026M828.472 322.944L863.619 358.091M1174.95 -94.2489L1210.1 -59.1017M665.838 414.868L700.985 450.015M1210.31 -58.8936L1245.46 -23.7464M701.193 450.223L736.34 485.37M920.396 160.31L955.543 195.457M955.751 195.665L990.899 230.812" stroke="#464DFF" stroke-opacity="0.2"/>
<path d="M390.822 129.543L341.117 129.543L305.97 164.69L305.97 214.396M390.822 129.543L425.97 164.69M390.822 129.543L390.822 79.8377L425.97 44.6905L475.675 44.6905M425.97 164.69L425.97 214.396L390.822 249.543L341.117 249.543M425.97 164.69L475.675 164.69L510.822 129.543L510.822 79.8377M341.117 249.543L305.97 214.396M341.117 249.543L341.117 299.249L305.97 334.396L256.264 334.396M305.97 214.396L256.264 214.396L221.117 249.543L221.117 299.249M-118.294 638.66L-168 638.66L-203.147 673.807L-203.147 723.513L-168 758.66L-118.294 758.66L-83.1472 723.513V673.807M-118.294 638.66L-83.1472 673.807M-118.294 638.66L-118.294 588.955L-83.1472 553.807L-33.4416 553.807M-83.1472 673.807H-33.4416L1.70562 638.66V588.955M426.178 164.899L376.472 164.899L341.325 200.046L341.325 249.751M426.178 164.899L461.325 200.046M426.178 164.899L426.178 115.193L461.325 80.0458L511.031 80.0458M461.325 200.046L461.325 249.751L426.178 284.899L376.472 284.899M461.325 200.046L511.031 200.046L546.178 164.899L546.178 115.193M376.472 284.899L341.325 249.751M376.472 284.899L376.472 334.604L341.325 369.751L291.619 369.751M341.325 249.751L291.619 249.751L256.472 284.899L256.472 334.604M-82.939 674.015H-132.645L-167.792 709.163L-167.792 758.868L-132.645 794.015L-82.939 794.015L-47.7919 758.868V709.163M-82.939 674.015L-47.7919 709.163M-82.939 674.015V624.31L-47.7919 589.163H1.91378M-47.7919 709.163H1.91378L37.061 674.015V624.31M645.381 -125.015L595.675 -125.015L560.528 -89.868L560.528 -40.1623M645.381 -125.015L680.528 -89.868M645.381 -125.015L645.381 -174.721L680.528 -209.868L730.234 -209.868M680.528 -89.868L680.528 -40.1623L645.381 -5.01518L595.675 -5.01516M680.528 -89.868L730.234 -89.868L765.381 -125.015L765.381 -174.721M595.675 -5.01516L560.528 -40.1623M595.675 -5.01516L595.675 44.6905L560.528 79.8377L510.822 79.8377M560.528 -40.1623L510.822 -40.1623L475.675 -5.01513L475.675 44.6905M136.264 384.102L86.5584 384.102L51.4113 419.249L51.4112 468.955M136.264 384.102L171.411 419.249M136.264 384.102L136.264 334.396L171.411 299.249L221.117 299.249M171.411 419.249V468.955L136.264 504.102H86.5584M171.411 419.249L221.117 419.249L256.264 384.102L256.264 334.396M86.5584 504.102L51.4112 468.955M86.5584 504.102V553.807L51.4113 588.955H1.70562M51.4112 468.955L1.70562 468.955L-33.4416 504.102L-33.4416 553.807M680.736 -89.6598L631.031 -89.6598L595.883 -54.5127L595.883 -4.807M680.736 -89.6598L715.883 -54.5126M680.736 -89.6598L680.736 -139.365L715.883 -174.513L765.589 -174.513M715.883 -54.5126L715.883 -4.80698L680.736 30.3402L631.031 30.3402M715.883 -54.5126L765.589 -54.5127L800.736 -89.6598L800.736 -139.365M631.031 30.3402L595.883 -4.807M631.031 30.3402L631.031 80.0458L595.883 115.193L546.178 115.193M595.883 -4.807L546.178 -4.80698L511.031 30.3402L511.031 80.0458M171.619 419.457H121.914L86.7666 454.604V504.31M171.619 419.457L206.767 454.604M171.619 419.457L171.619 369.751L206.767 334.604L256.472 334.604M206.767 454.604V504.31L171.619 539.457H121.914M206.767 454.604L256.472 454.604L291.619 419.457L291.619 369.751M121.914 539.457L86.7666 504.31M121.914 539.457V589.163L86.7666 624.31H37.061M86.7666 504.31H37.061L1.91378 539.457V589.163M518.102 2.26406L468.396 2.26409L433.249 37.4113L433.249 87.1169M518.102 2.26406L553.249 37.4113M518.102 2.26406L518.102 -47.4416L553.249 -82.5887L602.955 -82.5887M553.249 37.4113L553.249 87.1169L518.102 122.264L468.396 122.264M553.249 37.4113L602.955 37.4112L638.102 2.26409L638.102 -47.4416M468.396 122.264L433.249 87.1169M468.396 122.264L468.396 171.97L433.249 207.117L383.543 207.117M433.249 87.1169L383.543 87.1169L348.396 122.264L348.396 171.97M8.98484 511.381L-40.7208 511.381L-75.868 546.528L-75.868 596.234M8.98484 511.381L44.132 546.528M8.98484 511.381L8.98484 461.675L44.132 426.528L93.8377 426.528M44.132 546.528V596.234L8.98484 631.381H-40.7208M44.132 546.528H93.8377L128.985 511.381V461.675M-40.7208 631.381L-75.868 596.234M-40.7208 631.381V681.087L-75.868 716.234H-125.574L-160.721 681.087L-160.721 631.381L-125.574 596.234L-75.868 596.234M553.457 37.6194L503.751 37.6194L468.604 72.7666L468.604 122.472M553.457 37.6194L588.604 72.7666M553.457 37.6194L553.457 -12.0862L588.604 -47.2334L638.31 -47.2334M588.604 72.7666L588.604 122.472L553.457 157.619L503.751 157.619M588.604 72.7666L638.31 72.7666L673.457 37.6194L673.457 -12.0862M503.751 157.619L468.604 122.472M503.751 157.619L503.751 207.325L468.604 242.472L418.899 242.472M468.604 122.472L418.899 122.472L383.751 157.619L383.751 207.325M44.3402 546.736H-5.36544L-40.5126 581.883V631.589M44.3402 546.736L79.4874 581.883M44.3402 546.736V497.031L79.4874 461.883H129.193M79.4874 581.883V631.589L44.3402 666.736H-5.36544M79.4874 581.883H129.193L164.34 546.736V497.031M-5.36544 666.736L-40.5126 631.589M-5.36544 666.736V716.442L-40.5126 751.589H-90.2183L-125.365 716.442V666.736L-90.2183 631.589H-40.5126M772.66 -252.294L722.955 -252.294L687.807 -217.147L687.807 -167.442M772.66 -252.294L807.807 -217.147M772.66 -252.294L772.66 -302L807.807 -337.147L857.513 -337.147L892.66 -302L892.66 -252.294L857.513 -217.147L807.807 -217.147M807.807 -217.147L807.807 -167.442L772.66 -132.294L722.955 -132.294M722.955 -132.294L687.807 -167.442M722.955 -132.294L722.955 -82.5887L687.807 -47.4416L638.102 -47.4416M687.807 -167.442L638.102 -167.442L602.955 -132.294L602.955 -82.5887M263.543 256.822L213.838 256.823L178.69 291.97L178.69 341.675M263.543 256.822L298.69 291.97M263.543 256.822L263.543 207.117L298.69 171.97L348.396 171.97M298.69 291.97L298.69 341.675L263.543 376.823L213.838 376.822M298.69 291.97L348.396 291.97L383.543 256.823L383.543 207.117M213.838 376.822L178.69 341.675M213.838 376.822V426.528L178.69 461.675H128.985M178.69 341.675L128.985 341.675L93.8377 376.823L93.8377 426.528M808.015 -216.939L758.31 -216.939L723.163 -181.792L723.163 -132.086M808.015 -216.939L843.163 -181.792M808.015 -216.939L808.016 -266.645L843.163 -301.792L892.868 -301.792L928.015 -266.645L928.015 -216.939L892.868 -181.792L843.163 -181.792M843.163 -181.792L843.163 -132.086L808.016 -96.9391L758.31 -96.939M758.31 -96.939L723.163 -132.086M758.31 -96.939L758.31 -47.2334L723.163 -12.0862L673.457 -12.0862M723.163 -132.086L673.457 -132.086L638.31 -96.9391L638.31 -47.2334M298.899 292.178L249.193 292.178L214.046 327.325L214.046 377.031M298.899 292.178L334.046 327.325M298.899 292.178L298.899 242.472L334.046 207.325L383.751 207.325M334.046 327.325L334.046 377.031L298.899 412.178L249.193 412.178M334.046 327.325L383.751 327.325L418.899 292.178L418.899 242.472M249.193 412.178L214.046 377.031M249.193 412.178V461.883L214.046 497.031H164.34M214.046 377.031H164.34L129.193 412.178V461.883M475.675 44.6905L510.822 79.8377M-33.4416 553.807L1.70562 588.955M511.031 80.0458L546.178 115.193M1.91378 589.163L37.061 624.31M730.234 -209.868L765.381 -174.721M730.234 -209.868L730.234 -259.574L765.381 -294.721L815.087 -294.721L850.234 -259.574L850.234 -209.868L815.087 -174.721L765.381 -174.721M221.117 299.249L256.264 334.396M765.589 -174.513L800.736 -139.365M765.589 -174.513L765.589 -224.218L800.736 -259.365L850.442 -259.365L885.589 -224.218L885.589 -174.513L850.442 -139.365L800.736 -139.365M256.472 334.604L291.619 369.751M602.955 -82.5887L638.102 -47.4416M93.8377 426.528L128.985 461.675M638.31 -47.2334L673.457 -12.0862M129.193 461.883L164.34 497.031M348.396 171.97L383.543 207.117M383.751 207.325L418.899 242.472" stroke="#464DFF" stroke-opacity="0.2"/>
</svg>
